<svg width="24" height="24" viewBox="0 0 24 24" fill="none" xmlns="http://www.w3.org/2000/svg">
<path d="M22.1992 8.40226C22.1992 8.20226 21.9992 8.00226 21.7992 7.90226C21.3992 7.60226 20.7992 7.80226 20.4992 8.20226C18.5992 11.2023 15.3992 13.0023 11.8992 13.0023C9.59923 13.0023 7.39923 12.2023 5.59923 10.8023C4.79923 10.0023 4.09923 9.10226 3.39923 8.20226C3.19923 7.80226 2.59923 7.60226 2.19923 7.90226C1.99923 8.00226 1.79923 8.20226 1.79923 8.40226C1.69923 8.60226 1.79923 8.90226 1.89923 9.10226C2.49923 10.0023 3.09923 10.7023 3.79923 11.4023L2.39923 12.8023C2.19923 13.0023 2.09923 13.2023 2.09923 13.4023C2.09923 13.6023 2.19923 13.9023 2.39923 14.0023C2.79923 14.3023 3.29923 14.3023 3.69923 14.0023L5.19923 12.5023C6.19923 13.2023 7.29923 13.7023 8.39923 14.1023L7.89923 16.0023C7.79923 16.2023 7.89923 16.5023 7.99923 16.7023C8.09923 16.9023 8.29923 17.1023 8.59923 17.1023C9.09923 17.2023 9.59923 16.9023 9.69923 16.5023L10.2992 14.5023C11.4992 14.7023 12.6992 14.7023 13.7992 14.5023L14.3992 16.5023C14.4992 16.9023 14.8992 17.2023 15.2992 17.2023C15.3992 17.2023 15.4992 17.2023 15.4992 17.2023C15.6992 17.1023 15.8992 17.0023 16.0992 16.8023C16.1992 16.6023 16.1992 16.4023 16.1992 16.1023L15.6992 14.2023C16.7992 13.8023 17.8992 13.3023 18.8992 12.6023L20.3992 14.1023C20.7992 14.4023 21.2992 14.4023 21.6992 14.1023C21.8992 13.9023 21.9992 13.7023 21.9992 13.5023C21.9992 13.3023 21.8992 13.0023 21.6992 12.9023L20.2992 11.5023C20.9992 10.8023 21.6992 10.0023 22.1992 9.20226C22.1992 8.90226 22.2992 8.70226 22.1992 8.40226Z" fill="#8C8C8D"/>
</svg>
