<?xml version="1.0" standalone="no"?>
<!DOCTYPE svg PUBLIC "-//W3C//DTD SVG 20010904//EN"
 "http://www.w3.org/TR/2001/REC-SVG-20010904/DTD/svg10.dtd">
<svg version="1.0" xmlns="http://www.w3.org/2000/svg"
 width="2362.000000pt" height="2362.000000pt" viewBox="0 0 2362.000000 2362.000000"
 preserveAspectRatio="xMidYMid meet">

<g transform="translate(0.000000,2362.000000) scale(0.100000,-0.100000)"
fill="#000000" stroke="none">
<path d="M7930 16644 c-460 -31 -733 -70 -1037 -149 -351 -92 -635 -213 -883
-378 -243 -163 -467 -409 -583 -642 -353 -712 -134 -1641 625 -2653 147 -196
407 -504 317 -377 -480 685 -699 1292 -659 1826 65 856 764 1439 1943 1620
451 69 1056 78 1587 24 1489 -153 3090 -680 4595 -1513 1174 -650 2181 -1452
2864 -2281 450 -547 752 -1120 850 -1611 34 -169 44 -292 38 -449 -8 -234 -51
-413 -142 -605 -159 -332 -467 -619 -862 -802 -324 -151 -646 -236 -1128 -299
l-180 -24 205 5 c690 16 1189 101 1645 281 490 192 856 491 1049 853 422 795
115 1867 -861 3012 -1014 1188 -2643 2316 -4496 3110 -1369 586 -2729 940
-3997 1038 -136 11 -788 21 -890 14z"/>
<path d="M8205 15523 c-22 -1 -92 -8 -155 -13 -828 -76 -1442 -363 -1742 -815
-120 -182 -187 -365 -222 -610 l-6 -40 37 45 c21 24 76 82 123 129 653 650
2038 872 3680 590 946 -162 1815 -439 2795 -889 525 -241 1158 -609 1639 -954
118 -84 471 -357 486 -375 3 -3 59 -53 125 -111 299 -260 659 -642 838 -889
409 -564 597 -1040 597 -1509 0 -579 -325 -1058 -920 -1357 -246 -124 -580
-228 -925 -289 l-140 -25 105 5 c297 15 659 67 925 134 921 232 1470 702 1612
1380 22 107 25 445 5 560 -114 640 -503 1289 -1177 1966 -857 859 -2099 1646
-3495 2216 -475 193 -958 356 -1515 511 -139 38 -542 132 -715 166 -624 123
-1174 182 -1660 179 -140 -1 -273 -3 -295 -5z"/>
<path d="M8716 14423 c-4 -4 -331 -7 -726 -8 -706 0 -720 0 -739 -20 -32 -33
-12 -61 56 -80 160 -43 196 -57 239 -97 57 -52 83 -123 95 -258 16 -166 23
-2517 10 -3095 -14 -622 -28 -760 -87 -876 -37 -75 -69 -94 -181 -114 -117
-21 -133 -28 -133 -60 0 -40 71 -60 215 -59 121 1 885 0 1155 -1 123 0 150 3
173 18 58 38 25 77 -89 103 -127 28 -144 35 -180 66 -66 58 -94 144 -114 348
-24 246 -36 2114 -21 3305 l6 490 37 18 c56 28 282 43 413 29 385 -42 679
-284 803 -662 92 -277 90 -674 -4 -960 -86 -262 -262 -460 -459 -516 -49 -14
-105 -18 -305 -19 -135 0 -255 -4 -267 -8 -13 -5 -26 -19 -29 -33 -22 -89 251
-264 412 -264 30 0 51 -7 71 -24 15 -13 95 -118 176 -233 419 -590 548 -769
635 -883 384 -502 605 -686 907 -753 79 -17 142 -20 504 -26 l413 -6 215 -520
c118 -286 325 -788 460 -1115 135 -327 277 -671 315 -765 131 -322 164 -375
236 -375 85 0 99 25 497 940 152 349 292 669 310 710 18 41 104 237 190 435
170 390 284 647 505 1135 127 281 244 547 370 844 129 306 243 476 357 535 45
22 149 51 186 51 56 0 75 57 30 87 -24 16 -69 18 -527 19 -502 1 -632 -5 -673
-32 -46 -29 -18 -69 55 -79 85 -11 144 -37 169 -74 53 -79 35 -137 -347 -1101
-241 -608 -888 -2230 -901 -2259 -9 -21 -12 -22 -23 -10 -8 8 -72 169 -144
359 -72 190 -255 674 -407 1075 -646 1704 -655 1728 -657 1835 -3 102 40 147
166 175 39 9 76 21 83 27 25 21 15 48 -24 65 -33 14 -130 16 -808 18 -423 1
-774 4 -780 5 -41 10 -105 -21 -105 -51 0 -27 48 -56 105 -63 247 -29 396
-128 503 -333 55 -106 585 -1383 578 -1391 -12 -11 -121 25 -221 74 -302 147
-531 389 -1380 1454 -186 234 -353 443 -371 466 l-33 41 72 59 c187 154 374
354 491 527 311 460 338 989 70 1397 -201 307 -557 471 -1102 509 -175 12
-435 15 -446 4z"/>
</g>
</svg>
